#define noname_width 64
#define noname_height 64
static char noname_bits[] = {
 0x00,0x00,0x00,0xfc,0x7f,0x00,0x00,0x00,0x00,0x00,0x80,0xff,0x7f,0x01,0x00,
 0x00,0x00,0x00,0xe0,0xff,0xff,0x0f,0x00,0x00,0x00,0x00,0xf0,0xff,0xff,0x0f,
 0x00,0x00,0x00,0x00,0xf0,0xff,0xff,0x3f,0x00,0x00,0x00,0x00,0xfc,0xff,0xff,
 0x3f,0x00,0x00,0x00,0x00,0xfc,0xff,0xff,0x7f,0x00,0x00,0x00,0x00,0xf8,0xff,
 0xff,0x7f,0x00,0x00,0x00,0x00,0xfe,0xff,0xff,0xff,0x00,0x00,0x00,0x00,0xfe,
 0xff,0xff,0xff,0x00,0x00,0x00,0x00,0xfe,0xff,0xff,0xff,0x07,0x00,0x00,0x00,
 0xff,0xff,0xff,0xff,0x03,0x00,0x00,0x00,0xfe,0xff,0xff,0xff,0x03,0x00,0x00,
 0x00,0xff,0xff,0x07,0xf8,0x0f,0x00,0x00,0x00,0xff,0xff,0x01,0xf0,0x07,0x00,
 0x00,0x00,0xff,0xff,0x00,0xc0,0x03,0x00,0x00,0x00,0xff,0x7f,0x00,0xc0,0x01,
 0x00,0x00,0x00,0xff,0x1f,0x00,0x00,0x01,0x00,0x00,0x00,0xfe,0x3f,0x00,0x80,
 0x01,0x00,0x00,0x00,0xa7,0x17,0x00,0x80,0x01,0x00,0x00,0x00,0x07,0x0f,0x00,
 0x80,0x00,0x00,0x00,0x00,0x83,0x9b,0x7f,0x80,0x00,0x00,0x00,0x00,0x87,0xf3,
 0x7f,0x80,0x00,0x00,0x00,0x00,0x83,0x73,0xc0,0xff,0x00,0x00,0x00,0x00,0xc3,
 0x33,0xc0,0x97,0x01,0x00,0x00,0x00,0x43,0x33,0x80,0x0d,0x01,0x00,0x00,0x80,
 0x03,0x31,0x00,0x07,0x01,0x00,0x00,0x80,0x03,0x30,0x00,0x07,0x01,0x00,0x00,
 0x80,0x02,0x60,0x80,0x03,0x01,0x00,0x00,0x80,0x04,0xe0,0xc0,0x03,0x01,0x00,
 0x00,0x00,0x08,0xc0,0xe1,0x03,0x01,0x00,0x00,0x80,0x00,0x80,0xbf,0x82,0x01,
 0x00,0x00,0x80,0x00,0x00,0x9e,0xc6,0x00,0x00,0x00,0x00,0x00,0x00,0x80,0x7c,
 0x00,0x00,0x00,0x80,0x00,0x00,0x80,0x20,0x00,0x00,0x00,0x00,0x00,0x00,0x80,
 0x00,0x00,0x00,0x00,0x40,0x00,0x00,0x80,0x10,0x00,0x00,0x00,0x40,0x00,0x00,
 0x80,0x00,0x00,0x00,0x00,0x00,0x00,0x00,0x00,0x08,0x00,0x00,0x00,0x40,0x00,
 0x00,0x00,0x00,0x00,0x00,0x00,0x40,0x00,0x00,0x03,0x04,0x00,0x00,0x00,0x20,
 0x00,0x00,0xfc,0x00,0x00,0x00,0x00,0x20,0x00,0x00,0x00,0x02,0x00,0x00,0x00,
 0x20,0x00,0x00,0x10,0x01,0x00,0x00,0x00,0x10,0x40,0x00,0x80,0x00,0x00,0x00,
 0x00,0x18,0x80,0x00,0x40,0x00,0x00,0x00,0x00,0x08,0x00,0x03,0x20,0x00,0x00,
 0x00,0x00,0x06,0x80,0x3c,0x10,0x00,0x00,0x00,0x00,0x03,0xc0,0xe0,0x0f,0x00,
 0x00,0x00,0x80,0x02,0x40,0x00,0x00,0x00,0x00,0x00,0x80,0x02,0x40,0x01,0x00,
 0x00,0x00,0x00,0x60,0x01,0x80,0x02,0x00,0x00,0x00,0x00,0x10,0x01,0x80,0x0c,
 0x00,0x00,0x00,0x00,0x00,0x01,0x80,0x11,0x00,0x00,0x00,0x00,0x00,0x01,0x00,
 0xc5,0x00,0x00,0x00,0x00,0x00,0x01,0x00,0x02,0x05,0x00,0x00,0x00,0x00,0x01,
 0x00,0x02,0x10,0x00,0x00,0x00,0x00,0x03,0x00,0x01,0x00,0x00,0x00,0x00,0x00,
 0x01,0x80,0x00,0x00,0x00,0x00,0x00,0x00,0x02,0x40,0x00,0x00,0x00,0x00,0x00,
 0x00,0x0c,0x30,0x00,0x00,0x00,0x00,0x00,0x00,0xf0,0x0f,0x00,0x00,0x00,0x00,
 0x00,0x00,0x00,0x00,0x00,0x00,0x00,0x00,0x00,0x00,0x00,0x00,0x00,0x00,0x00,
 0x00,0x00};
